<?xml version='1.0' encoding='UTF-8'?>
<svg width="43mm" height="43mm" version="1.1" viewBox="0 0 43 43" xmlns="http://www.w3.org/2000/svg"><path d="M3,3H4V4H3zM4,3H5V4H4zM5,3H6V4H5zM6,3H7V4H6zM7,3H8V4H7zM8,3H9V4H8zM9,3H10V4H9zM12,3H13V4H12zM16,3H17V4H16zM19,3H20V4H19zM22,3H23V4H22zM23,3H24V4H23zM25,3H26V4H25zM26,3H27V4H26zM31,3H32V4H31zM33,3H34V4H33zM34,3H35V4H34zM35,3H36V4H35zM36,3H37V4H36zM37,3H38V4H37zM38,3H39V4H38zM39,3H40V4H39zM3,4H4V5H3zM9,4H10V5H9zM16,4H17V5H16zM19,4H20V5H19zM21,4H22V5H21zM24,4H25V5H24zM25,4H26V5H25zM28,4H29V5H28zM29,4H30V5H29zM30,4H31V5H30zM31,4H32V5H31zM33,4H34V5H33zM39,4H40V5H39zM3,5H4V6H3zM5,5H6V6H5zM6,5H7V6H6zM7,5H8V6H7zM9,5H10V6H9zM11,5H12V6H11zM12,5H13V6H12zM14,5H15V6H14zM17,5H18V6H17zM21,5H22V6H21zM22,5H23V6H22zM23,5H24V6H23zM24,5H25V6H24zM26,5H27V6H26zM29,5H30V6H29zM33,5H34V6H33zM35,5H36V6H35zM36,5H37V6H36zM37,5H38V6H37zM39,5H40V6H39zM3,6H4V7H3zM5,6H6V7H5zM6,6H7V7H6zM7,6H8V7H7zM9,6H10V7H9zM11,6H12V7H11zM12,6H13V7H12zM13,6H14V7H13zM16,6H17V7H16zM17,6H18V7H17zM19,6H20V7H19zM20,6H21V7H20zM22,6H23V7H22zM23,6H24V7H23zM25,6H26V7H25zM26,6H27V7H26zM27,6H28V7H27zM28,6H29V7H28zM29,6H30V7H29zM30,6H31V7H30zM33,6H34V7H33zM35,6H36V7H35zM36,6H37V7H36zM37,6H38V7H37zM39,6H40V7H39zM3,7H4V8H3zM5,7H6V8H5zM6,7H7V8H6zM7,7H8V8H7zM9,7H10V8H9zM11,7H12V8H11zM12,7H13V8H12zM17,7H18V8H17zM18,7H19V8H18zM21,7H22V8H21zM22,7H23V8H22zM23,7H24V8H23zM24,7H25V8H24zM26,7H27V8H26zM28,7H29V8H28zM29,7H30V8H29zM31,7H32V8H31zM33,7H34V8H33zM35,7H36V8H35zM36,7H37V8H36zM37,7H38V8H37zM39,7H40V8H39zM3,8H4V9H3zM9,8H10V9H9zM11,8H12V9H11zM15,8H16V9H15zM16,8H17V9H16zM17,8H18V9H17zM18,8H19V9H18zM19,8H20V9H19zM20,8H21V9H20zM23,8H24V9H23zM28,8H29V9H28zM29,8H30V9H29zM30,8H31V9H30zM33,8H34V9H33zM39,8H40V9H39zM3,9H4V10H3zM4,9H5V10H4zM5,9H6V10H5zM6,9H7V10H6zM7,9H8V10H7zM8,9H9V10H8zM9,9H10V10H9zM11,9H12V10H11zM13,9H14V10H13zM15,9H16V10H15zM17,9H18V10H17zM19,9H20V10H19zM21,9H22V10H21zM23,9H24V10H23zM25,9H26V10H25zM27,9H28V10H27zM29,9H30V10H29zM31,9H32V10H31zM33,9H34V10H33zM34,9H35V10H34zM35,9H36V10H35zM36,9H37V10H36zM37,9H38V10H37zM38,9H39V10H38zM39,9H40V10H39zM11,10H12V11H11zM14,10H15V11H14zM16,10H17V11H16zM18,10H19V11H18zM19,10H20V11H19zM21,10H22V11H21zM22,10H23V11H22zM24,10H25V11H24zM29,10H30V11H29zM31,10H32V11H31zM3,11H4V12H3zM5,11H6V12H5zM6,11H7V12H6zM7,11H8V12H7zM8,11H9V12H8zM9,11H10V12H9zM13,11H14V12H13zM14,11H15V12H14zM19,11H20V12H19zM20,11H21V12H20zM27,11H28V12H27zM28,11H29V12H28zM29,11H30V12H29zM33,11H34V12H33zM34,11H35V12H34zM35,11H36V12H35zM36,11H37V12H36zM37,11H38V12H37zM3,12H4V13H3zM4,12H5V13H4zM5,12H6V13H5zM6,12H7V13H6zM11,12H12V13H11zM12,12H13V13H12zM18,12H19V13H18zM21,12H22V13H21zM22,12H23V13H22zM23,12H24V13H23zM26,12H27V13H26zM28,12H29V13H28zM31,12H32V13H31zM38,12H39V13H38zM6,13H7V14H6zM7,13H8V14H7zM8,13H9V14H8zM9,13H10V14H9zM10,13H11V14H10zM11,13H12V14H11zM12,13H13V14H12zM13,13H14V14H13zM15,13H16V14H15zM18,13H19V14H18zM19,13H20V14H19zM21,13H22V14H21zM23,13H24V14H23zM24,13H25V14H24zM27,13H28V14H27zM30,13H31V14H30zM31,13H32V14H31zM33,13H34V14H33zM35,13H36V14H35zM36,13H37V14H36zM38,13H39V14H38zM39,13H40V14H39zM5,14H6V15H5zM6,14H7V15H6zM10,14H11V15H10zM11,14H12V15H11zM12,14H13V15H12zM15,14H16V15H15zM16,14H17V15H16zM17,14H18V15H17zM18,14H19V15H18zM24,14H25V15H24zM30,14H31V15H30zM31,14H32V15H31zM32,14H33V15H32zM39,14H40V15H39zM4,15H5V16H4zM6,15H7V16H6zM9,15H10V16H9zM11,15H12V16H11zM12,15H13V16H12zM13,15H14V16H13zM14,15H15V16H14zM15,15H16V16H15zM16,15H17V16H16zM17,15H18V16H17zM18,15H19V16H18zM19,15H20V16H19zM20,15H21V16H20zM22,15H23V16H22zM23,15H24V16H23zM25,15H26V16H25zM27,15H28V16H27zM28,15H29V16H28zM29,15H30V16H29zM32,15H33V16H32zM33,15H34V16H33zM34,15H35V16H34zM35,15H36V16H35zM36,15H37V16H36zM37,15H38V16H37zM38,15H39V16H38zM39,15H40V16H39zM3,16H4V17H3zM4,16H5V17H4zM5,16H6V17H5zM7,16H8V17H7zM8,16H9V17H8zM13,16H14V17H13zM14,16H15V17H14zM16,16H17V17H16zM19,16H20V17H19zM20,16H21V17H20zM21,16H22V17H21zM22,16H23V17H22zM23,16H24V17H23zM24,16H25V17H24zM25,16H26V17H25zM26,16H27V17H26zM28,16H29V17H28zM29,16H30V17H29zM31,16H32V17H31zM34,16H35V17H34zM38,16H39V17H38zM3,17H4V18H3zM4,17H5V18H4zM8,17H9V18H8zM9,17H10V18H9zM12,17H13V18H12zM13,17H14V18H13zM14,17H15V18H14zM15,17H16V18H15zM17,17H18V18H17zM18,17H19V18H18zM19,17H20V18H19zM21,17H22V18H21zM25,17H26V18H25zM28,17H29V18H28zM29,17H30V18H29zM30,17H31V18H30zM31,17H32V18H31zM32,17H33V18H32zM33,17H34V18H33zM34,17H35V18H34zM35,17H36V18H35zM36,17H37V18H36zM38,17H39V18H38zM39,17H40V18H39zM3,18H4V19H3zM8,18H9V19H8zM14,18H15V19H14zM16,18H17V19H16zM17,18H18V19H17zM18,18H19V19H18zM22,18H23V19H22zM23,18H24V19H23zM24,18H25V19H24zM30,18H31V19H30zM34,18H35V19H34zM35,18H36V19H35zM38,18H39V19H38zM39,18H40V19H39zM3,19H4V20H3zM4,19H5V20H4zM7,19H8V20H7zM8,19H9V20H8zM9,19H10V20H9zM11,19H12V20H11zM13,19H14V20H13zM14,19H15V20H14zM15,19H16V20H15zM17,19H18V20H17zM18,19H19V20H18zM20,19H21V20H20zM22,19H23V20H22zM25,19H26V20H25zM28,19H29V20H28zM29,19H30V20H29zM30,19H31V20H30zM31,19H32V20H31zM32,19H33V20H32zM33,19H34V20H33zM34,19H35V20H34zM35,19H36V20H35zM37,19H38V20H37zM38,19H39V20H38zM4,20H5V21H4zM6,20H7V21H6zM7,20H8V21H7zM10,20H11V21H10zM13,20H14V21H13zM14,20H15V21H14zM16,20H17V21H16zM18,20H19V21H18zM19,20H20V21H19zM22,20H23V21H22zM23,20H24V21H23zM24,20H25V21H24zM25,20H26V21H25zM26,20H27V21H26zM29,20H30V21H29zM32,20H33V21H32zM34,20H35V21H34zM38,20H39V21H38zM3,21H4V22H3zM8,21H9V22H8zM9,21H10V22H9zM11,21H12V22H11zM12,21H13V22H12zM15,21H16V22H15zM20,21H21V22H20zM21,21H22V22H21zM23,21H24V22H23zM24,21H25V22H24zM25,21H26V22H25zM29,21H30V22H29zM30,21H31V22H30zM31,21H32V22H31zM34,21H35V22H34zM38,21H39V22H38zM39,21H40V22H39zM4,22H5V23H4zM5,22H6V23H5zM7,22H8V23H7zM8,22H9V23H8zM11,22H12V23H11zM14,22H15V23H14zM15,22H16V23H15zM16,22H17V23H16zM17,22H18V23H17zM19,22H20V23H19zM23,22H24V23H23zM24,22H25V23H24zM25,22H26V23H25zM29,22H30V23H29zM30,22H31V23H30zM31,22H32V23H31zM33,22H34V23H33zM34,22H35V23H34zM39,22H40V23H39zM3,23H4V24H3zM4,23H5V24H4zM7,23H8V24H7zM9,23H10V24H9zM14,23H15V24H14zM20,23H21V24H20zM22,23H23V24H22zM25,23H26V24H25zM28,23H29V24H28zM30,23H31V24H30zM32,23H33V24H32zM33,23H34V24H33zM35,23H36V24H35zM36,23H37V24H36zM37,23H38V24H37zM3,24H4V25H3zM4,24H5V25H4zM5,24H6V25H5zM6,24H7V25H6zM7,24H8V25H7zM10,24H11V25H10zM15,24H16V25H15zM17,24H18V25H17zM19,24H20V25H19zM21,24H22V25H21zM22,24H23V25H22zM24,24H25V25H24zM26,24H27V25H26zM31,24H32V25H31zM36,24H37V25H36zM38,24H39V25H38zM6,25H7V26H6zM7,25H8V26H7zM9,25H10V26H9zM10,25H11V26H10zM11,25H12V26H11zM13,25H14V26H13zM14,25H15V26H14zM17,25H18V26H17zM18,25H19V26H18zM19,25H20V26H19zM24,25H25V26H24zM29,25H30V26H29zM30,25H31V26H30zM31,25H32V26H31zM33,25H34V26H33zM34,25H35V26H34zM35,25H36V26H35zM36,25H37V26H36zM39,25H40V26H39zM3,26H4V27H3zM5,26H6V27H5zM7,26H8V27H7zM10,26H11V27H10zM13,26H14V27H13zM15,26H16V27H15zM17,26H18V27H17zM21,26H22V27H21zM22,26H23V27H22zM23,26H24V27H23zM24,26H25V27H24zM26,26H27V27H26zM30,26H31V27H30zM31,26H32V27H31zM34,26H35V27H34zM35,26H36V27H35zM38,26H39V27H38zM39,26H40V27H39zM4,27H5V28H4zM5,27H6V28H5zM8,27H9V28H8zM9,27H10V28H9zM10,27H11V28H10zM11,27H12V28H11zM12,27H13V28H12zM14,27H15V28H14zM16,27H17V28H16zM17,27H18V28H17zM18,27H19V28H18zM19,27H20V28H19zM20,27H21V28H20zM22,27H23V28H22zM23,27H24V28H23zM25,27H26V28H25zM28,27H29V28H28zM29,27H30V28H29zM30,27H31V28H30zM32,27H33V28H32zM33,27H34V28H33zM35,27H36V28H35zM37,27H38V28H37zM38,27H39V28H38zM39,27H40V28H39zM3,28H4V29H3zM5,28H6V29H5zM6,28H7V29H6zM10,28H11V29H10zM11,28H12V29H11zM14,28H15V29H14zM15,28H16V29H15zM17,28H18V29H17zM18,28H19V29H18zM21,28H22V29H21zM22,28H23V29H22zM24,28H25V29H24zM26,28H27V29H26zM28,28H29V29H28zM29,28H30V29H29zM31,28H32V29H31zM34,28H35V29H34zM36,28H37V29H36zM3,29H4V30H3zM5,29H6V30H5zM9,29H10V30H9zM10,29H11V30H10zM13,29H14V30H13zM17,29H18V30H17zM18,29H19V30H18zM19,29H20V30H19zM23,29H24V30H23zM27,29H28V30H27zM28,29H29V30H28zM29,29H30V30H29zM30,29H31V30H30zM38,29H39V30H38zM39,29H40V30H39zM3,30H4V31H3zM5,30H6V31H5zM6,30H7V31H6zM16,30H17V31H16zM18,30H19V31H18zM23,30H24V31H23zM24,30H25V31H24zM25,30H26V31H25zM26,30H27V31H26zM27,30H28V31H27zM30,30H31V31H30zM31,30H32V31H31zM32,30H33V31H32zM33,30H34V31H33zM35,30H36V31H35zM39,30H40V31H39zM3,31H4V32H3zM5,31H6V32H5zM8,31H9V32H8zM9,31H10V32H9zM12,31H13V32H12zM13,31H14V32H13zM14,31H15V32H14zM18,31H19V32H18zM20,31H21V32H20zM21,31H22V32H21zM25,31H26V32H25zM27,31H28V32H27zM28,31H29V32H28zM29,31H30V32H29zM31,31H32V32H31zM32,31H33V32H32zM33,31H34V32H33zM34,31H35V32H34zM35,31H36V32H35zM36,31H37V32H36zM37,31H38V32H37zM39,31H40V32H39zM11,32H12V33H11zM12,32H13V33H12zM16,32H17V33H16zM19,32H20V33H19zM21,32H22V33H21zM22,32H23V33H22zM23,32H24V33H23zM24,32H25V33H24zM26,32H27V33H26zM31,32H32V33H31zM35,32H36V33H35zM36,32H37V33H36zM3,33H4V34H3zM4,33H5V34H4zM5,33H6V34H5zM6,33H7V34H6zM7,33H8V34H7zM8,33H9V34H8zM9,33H10V34H9zM12,33H13V34H12zM13,33H14V34H13zM15,33H16V34H15zM16,33H17V34H16zM18,33H19V34H18zM19,33H20V34H19zM23,33H24V34H23zM24,33H25V34H24zM28,33H29V34H28zM31,33H32V34H31zM33,33H34V34H33zM35,33H36V34H35zM37,33H38V34H37zM38,33H39V34H38zM39,33H40V34H39zM3,34H4V35H3zM9,34H10V35H9zM11,34H12V35H11zM12,34H13V35H12zM15,34H16V35H15zM17,34H18V35H17zM19,34H20V35H19zM23,34H24V35H23zM24,34H25V35H24zM25,34H26V35H25zM27,34H28V35H27zM31,34H32V35H31zM35,34H36V35H35zM36,34H37V35H36zM38,34H39V35H38zM3,35H4V36H3zM5,35H6V36H5zM6,35H7V36H6zM7,35H8V36H7zM9,35H10V36H9zM11,35H12V36H11zM12,35H13V36H12zM13,35H14V36H13zM16,35H17V36H16zM21,35H22V36H21zM25,35H26V36H25zM26,35H27V36H26zM27,35H28V36H27zM28,35H29V36H28zM29,35H30V36H29zM30,35H31V36H30zM31,35H32V36H31zM32,35H33V36H32zM33,35H34V36H33zM34,35H35V36H34zM35,35H36V36H35zM37,35H38V36H37zM39,35H40V36H39zM3,36H4V37H3zM5,36H6V37H5zM6,36H7V37H6zM7,36H8V37H7zM9,36H10V37H9zM11,36H12V37H11zM13,36H14V37H13zM14,36H15V37H14zM15,36H16V37H15zM16,36H17V37H16zM18,36H19V37H18zM19,36H20V37H19zM20,36H21V37H20zM21,36H22V37H21zM22,36H23V37H22zM23,36H24V37H23zM26,36H27V37H26zM28,36H29V37H28zM31,36H32V37H31zM32,36H33V37H32zM33,36H34V37H33zM35,36H36V37H35zM36,36H37V37H36zM38,36H39V37H38zM39,36H40V37H39zM3,37H4V38H3zM5,37H6V38H5zM6,37H7V38H6zM7,37H8V38H7zM9,37H10V38H9zM11,37H12V38H11zM12,37H13V38H12zM13,37H14V38H13zM15,37H16V38H15zM16,37H17V38H16zM20,37H21V38H20zM23,37H24V38H23zM24,37H25V38H24zM29,37H30V38H29zM37,37H38V38H37zM38,37H39V38H38zM39,37H40V38H39zM3,38H4V39H3zM9,38H10V39H9zM13,38H14V39H13zM19,38H20V39H19zM22,38H23V39H22zM23,38H24V39H23zM24,38H25V39H24zM27,38H28V39H27zM29,38H30V39H29zM30,38H31V39H30zM31,38H32V39H31zM32,38H33V39H32zM35,38H36V39H35zM39,38H40V39H39zM3,39H4V40H3zM4,39H5V40H4zM5,39H6V40H5zM6,39H7V40H6zM7,39H8V40H7zM8,39H9V40H8zM9,39H10V40H9zM11,39H12V40H11zM12,39H13V40H12zM13,39H14V40H13zM16,39H17V40H16zM17,39H18V40H17zM19,39H20V40H19zM20,39H21V40H20zM21,39H22V40H21zM25,39H26V40H25zM26,39H27V40H26zM27,39H28V40H27zM28,39H29V40H28zM29,39H30V40H29zM32,39H33V40H32zM35,39H36V40H35zM36,39H37V40H36zM37,39H38V40H37zM38,39H39V40H38zM39,39H40V40H39z" id="qr-path" fill="#000000" fill-opacity="1" fill-rule="nonzero" stroke="none" /></svg>